<svg xmlns="http://www.w3.org/2000/svg" width="1800.0" height="607.5" viewBox="0 0 1664.0 561.6" opacity="1" preserveAspectRatio="xMidYMid meet">
      <defs>
      
    <filter id="e1" x="-35%" y="-35%" width="170%" height="170%" color-interpolation-filters="sRGB">
      <feTurbulence type="fractalNoise" baseFrequency="0.022 0.022" numOctaves="4" seed="11" result="n"></feTurbulence>
      <feDisplacementMap in="SourceGraphic" in2="n" scale="7" xChannelSelector="R" yChannelSelector="G" result="d"></feDisplacementMap>
      <feGaussianBlur in="d" stdDeviation="0.5"></feGaussianBlur>
    </filter>
      
    <filter id="e2" x="-35%" y="-35%" width="170%" height="170%" color-interpolation-filters="sRGB">
      <feTurbulence type="fractalNoise" baseFrequency="0.020 0.020" numOctaves="4" seed="27" result="n"></feTurbulence>
      <feDisplacementMap in="SourceGraphic" in2="n" scale="8" xChannelSelector="R" yChannelSelector="G" result="d"></feDisplacementMap>
      <feGaussianBlur in="d" stdDeviation="0.6"></feGaussianBlur>
    </filter>
      
    <filter id="e3" x="-35%" y="-35%" width="170%" height="170%" color-interpolation-filters="sRGB">
      <feTurbulence type="fractalNoise" baseFrequency="0.026 0.026" numOctaves="4" seed="41" result="n"></feTurbulence>
      <feDisplacementMap in="SourceGraphic" in2="n" scale="9" xChannelSelector="R" yChannelSelector="G" result="d"></feDisplacementMap>
      <feGaussianBlur in="d" stdDeviation="0.6"></feGaussianBlur>
    </filter>
      
    <filter id="e4" x="-35%" y="-35%" width="170%" height="170%" color-interpolation-filters="sRGB">
      <feTurbulence type="fractalNoise" baseFrequency="0.030 0.030" numOctaves="4" seed="7" result="n"></feTurbulence>
      <feDisplacementMap in="SourceGraphic" in2="n" scale="6" xChannelSelector="R" yChannelSelector="G" result="d"></feDisplacementMap>
      <feGaussianBlur in="d" stdDeviation="0.5"></feGaussianBlur>
    </filter>
      
    <filter id="es" x="-35%" y="-35%" width="170%" height="170%" color-interpolation-filters="sRGB">
      <feTurbulence type="fractalNoise" baseFrequency="0.018 0.018" numOctaves="4" seed="19" result="n"></feTurbulence>
      <feDisplacementMap in="SourceGraphic" in2="n" scale="5" xChannelSelector="R" yChannelSelector="G" result="d"></feDisplacementMap>
      <feGaussianBlur in="d" stdDeviation="1.3"></feGaussianBlur>
    </filter>
      
    <filter id="ej" x="-35%" y="-35%" width="170%" height="170%" color-interpolation-filters="sRGB">
      <feTurbulence type="fractalNoise" baseFrequency="0.040 0.040" numOctaves="4" seed="33" result="n"></feTurbulence>
      <feDisplacementMap in="SourceGraphic" in2="n" scale="12" xChannelSelector="R" yChannelSelector="G" result="d"></feDisplacementMap>
      <feGaussianBlur in="d" stdDeviation="0.7"></feGaussianBlur>
    </filter>
      
    <filter id="g1" x="-35%" y="-35%" width="170%" height="170%" color-interpolation-filters="sRGB">
      <feTurbulence type="fractalNoise" baseFrequency="0.9 0.9" numOctaves="2" seed="5" result="g"></feTurbulence>
      <feColorMatrix in="g" type="matrix" values="0 0 0 0 0  0 0 0 0 0  0 0 0 0 0  0 0 0 -1.1 0.55" result="ga"></feColorMatrix>
      <feComposite in="ga" in2="SourceAlpha" operator="in" result="gm"></feComposite>
      <feGaussianBlur in="gm" stdDeviation="0.4"></feGaussianBlur>
    </filter>
      
    <filter id="g2" x="-35%" y="-35%" width="170%" height="170%" color-interpolation-filters="sRGB">
      <feTurbulence type="fractalNoise" baseFrequency="0.9 0.9" numOctaves="2" seed="14" result="g"></feTurbulence>
      <feColorMatrix in="g" type="matrix" values="0 0 0 0 0  0 0 0 0 0  0 0 0 0 0  0 0 0 -1.1 0.55" result="ga"></feColorMatrix>
      <feComposite in="ga" in2="SourceAlpha" operator="in" result="gm"></feComposite>
      <feGaussianBlur in="gm" stdDeviation="0.4"></feGaussianBlur>
    </filter>
      <filter id="paper" x="0" y="0" width="100%" height="100%">
        <feTurbulence type="fractalNoise" baseFrequency="0.012 0.014" numOctaves="5" seed="8" result="p"></feTurbulence>
        <feColorMatrix in="p" type="matrix" values="0 0 0 0 0  0 0 0 0 0  0 0 0 0 0  0 0 0 0.06 0"></feColorMatrix>
      </filter>
    </defs>
      <g transform="translate(32 10.8)">
    
    <g transform="translate(175 300) rotate(-8) scale(2)" opacity="1"><g transform="translate(-50 -55)">
      <path d="M50 12 C52 40 50 70 44 96" stroke="#bd9659" stroke-width="2.4" fill="none" opacity="0.4" filter="url(#es)"></path>
      <g transform="translate(50 18) rotate(-28)">
        <ellipse cx="0" cy="0" rx="3.6" ry="7" fill="#c9b079" opacity="0.5" filter="url(#e1)"></ellipse>
        <ellipse cx="0.6" cy="1.2" rx="2.4" ry="4.6" fill="#bd9659" opacity="0.34" filter="url(#e3)" style="mix-blend-mode:multiply"></ellipse>
        <ellipse cx="-0.6" cy="-2" rx="1.4" ry="3" fill="#d3bd7c" opacity="0.4" filter="url(#es)"></ellipse>
      </g><path d="M50 12 q -6 -10 -9 -16" stroke="#c9b079" stroke-width="0.7" fill="none" opacity="0.3" filter="url(#es)"></path><g transform="translate(44 24) rotate(-4)">
        <ellipse cx="0" cy="0" rx="3.6" ry="7" fill="#c9b079" opacity="0.5" filter="url(#e2)"></ellipse>
        <ellipse cx="0.6" cy="1.2" rx="2.4" ry="4.6" fill="#bd9659" opacity="0.34" filter="url(#e3)" style="mix-blend-mode:multiply"></ellipse>
        <ellipse cx="-0.6" cy="-2" rx="1.4" ry="3" fill="#d3bd7c" opacity="0.4" filter="url(#es)"></ellipse>
      </g><path d="M44 18 q 6 -10 9 -16" stroke="#c9b079" stroke-width="0.7" fill="none" opacity="0.3" filter="url(#es)"></path><g transform="translate(56 26) rotate(-28)">
        <ellipse cx="0" cy="0" rx="3.6" ry="7" fill="#c9b079" opacity="0.5" filter="url(#e1)"></ellipse>
        <ellipse cx="0.6" cy="1.2" rx="2.4" ry="4.6" fill="#bd9659" opacity="0.34" filter="url(#e3)" style="mix-blend-mode:multiply"></ellipse>
        <ellipse cx="-0.6" cy="-2" rx="1.4" ry="3" fill="#d3bd7c" opacity="0.4" filter="url(#es)"></ellipse>
      </g><path d="M56 20 q -6 -10 -9 -16" stroke="#c9b079" stroke-width="0.7" fill="none" opacity="0.3" filter="url(#es)"></path><g transform="translate(42 33) rotate(-4)">
        <ellipse cx="0" cy="0" rx="3.6" ry="7" fill="#c9b079" opacity="0.5" filter="url(#e2)"></ellipse>
        <ellipse cx="0.6" cy="1.2" rx="2.4" ry="4.6" fill="#bd9659" opacity="0.34" filter="url(#e3)" style="mix-blend-mode:multiply"></ellipse>
        <ellipse cx="-0.6" cy="-2" rx="1.4" ry="3" fill="#d3bd7c" opacity="0.4" filter="url(#es)"></ellipse>
      </g><path d="M42 27 q 6 -10 9 -16" stroke="#c9b079" stroke-width="0.7" fill="none" opacity="0.3" filter="url(#es)"></path><g transform="translate(57 36) rotate(-28)">
        <ellipse cx="0" cy="0" rx="3.6" ry="7" fill="#c9b079" opacity="0.5" filter="url(#e1)"></ellipse>
        <ellipse cx="0.6" cy="1.2" rx="2.4" ry="4.6" fill="#bd9659" opacity="0.34" filter="url(#e3)" style="mix-blend-mode:multiply"></ellipse>
        <ellipse cx="-0.6" cy="-2" rx="1.4" ry="3" fill="#d3bd7c" opacity="0.4" filter="url(#es)"></ellipse>
      </g><path d="M57 30 q -6 -10 -9 -16" stroke="#c9b079" stroke-width="0.7" fill="none" opacity="0.3" filter="url(#es)"></path><g transform="translate(40 43) rotate(-4)">
        <ellipse cx="0" cy="0" rx="3.6" ry="7" fill="#c9b079" opacity="0.5" filter="url(#e2)"></ellipse>
        <ellipse cx="0.6" cy="1.2" rx="2.4" ry="4.6" fill="#bd9659" opacity="0.34" filter="url(#e3)" style="mix-blend-mode:multiply"></ellipse>
        <ellipse cx="-0.6" cy="-2" rx="1.4" ry="3" fill="#d3bd7c" opacity="0.4" filter="url(#es)"></ellipse>
      </g><path d="M40 37 q 6 -10 9 -16" stroke="#c9b079" stroke-width="0.7" fill="none" opacity="0.3" filter="url(#es)"></path><g transform="translate(56 47) rotate(-28)">
        <ellipse cx="0" cy="0" rx="3.6" ry="7" fill="#c9b079" opacity="0.5" filter="url(#e1)"></ellipse>
        <ellipse cx="0.6" cy="1.2" rx="2.4" ry="4.6" fill="#bd9659" opacity="0.34" filter="url(#e3)" style="mix-blend-mode:multiply"></ellipse>
        <ellipse cx="-0.6" cy="-2" rx="1.4" ry="3" fill="#d3bd7c" opacity="0.4" filter="url(#es)"></ellipse>
      </g><path d="M56 41 q -6 -10 -9 -16" stroke="#c9b079" stroke-width="0.7" fill="none" opacity="0.3" filter="url(#es)"></path><g transform="translate(39 54) rotate(-4)">
        <ellipse cx="0" cy="0" rx="3.6" ry="7" fill="#c9b079" opacity="0.5" filter="url(#e2)"></ellipse>
        <ellipse cx="0.6" cy="1.2" rx="2.4" ry="4.6" fill="#bd9659" opacity="0.34" filter="url(#e3)" style="mix-blend-mode:multiply"></ellipse>
        <ellipse cx="-0.6" cy="-2" rx="1.4" ry="3" fill="#d3bd7c" opacity="0.4" filter="url(#es)"></ellipse>
      </g><path d="M39 48 q 6 -10 9 -16" stroke="#c9b079" stroke-width="0.7" fill="none" opacity="0.3" filter="url(#es)"></path><g transform="translate(54 58) rotate(-28)">
        <ellipse cx="0" cy="0" rx="3.6" ry="7" fill="#c9b079" opacity="0.5" filter="url(#e1)"></ellipse>
        <ellipse cx="0.6" cy="1.2" rx="2.4" ry="4.6" fill="#bd9659" opacity="0.34" filter="url(#e3)" style="mix-blend-mode:multiply"></ellipse>
        <ellipse cx="-0.6" cy="-2" rx="1.4" ry="3" fill="#d3bd7c" opacity="0.4" filter="url(#es)"></ellipse>
      </g><path d="M54 52 q -6 -10 -9 -16" stroke="#c9b079" stroke-width="0.7" fill="none" opacity="0.3" filter="url(#es)"></path><g transform="translate(38 65) rotate(-4)">
        <ellipse cx="0" cy="0" rx="3.6" ry="7" fill="#c9b079" opacity="0.5" filter="url(#e2)"></ellipse>
        <ellipse cx="0.6" cy="1.2" rx="2.4" ry="4.6" fill="#bd9659" opacity="0.34" filter="url(#e3)" style="mix-blend-mode:multiply"></ellipse>
        <ellipse cx="-0.6" cy="-2" rx="1.4" ry="3" fill="#d3bd7c" opacity="0.4" filter="url(#es)"></ellipse>
      </g><path d="M38 59 q 6 -10 9 -16" stroke="#c9b079" stroke-width="0.7" fill="none" opacity="0.3" filter="url(#es)"></path><g transform="translate(52 69) rotate(-28)">
        <ellipse cx="0" cy="0" rx="3.6" ry="7" fill="#c9b079" opacity="0.5" filter="url(#e1)"></ellipse>
        <ellipse cx="0.6" cy="1.2" rx="2.4" ry="4.6" fill="#bd9659" opacity="0.34" filter="url(#e3)" style="mix-blend-mode:multiply"></ellipse>
        <ellipse cx="-0.6" cy="-2" rx="1.4" ry="3" fill="#d3bd7c" opacity="0.4" filter="url(#es)"></ellipse>
      </g><path d="M52 63 q -6 -10 -9 -16" stroke="#c9b079" stroke-width="0.7" fill="none" opacity="0.3" filter="url(#es)"></path><g transform="translate(37 76) rotate(-4)">
        <ellipse cx="0" cy="0" rx="3.6" ry="7" fill="#c9b079" opacity="0.5" filter="url(#e2)"></ellipse>
        <ellipse cx="0.6" cy="1.2" rx="2.4" ry="4.6" fill="#bd9659" opacity="0.34" filter="url(#e3)" style="mix-blend-mode:multiply"></ellipse>
        <ellipse cx="-0.6" cy="-2" rx="1.4" ry="3" fill="#d3bd7c" opacity="0.4" filter="url(#es)"></ellipse>
      </g><path d="M37 70 q 6 -10 9 -16" stroke="#c9b079" stroke-width="0.7" fill="none" opacity="0.3" filter="url(#es)"></path><g transform="translate(49 80) rotate(-28)">
        <ellipse cx="0" cy="0" rx="3.6" ry="7" fill="#c9b079" opacity="0.5" filter="url(#e1)"></ellipse>
        <ellipse cx="0.6" cy="1.2" rx="2.4" ry="4.6" fill="#bd9659" opacity="0.34" filter="url(#e3)" style="mix-blend-mode:multiply"></ellipse>
        <ellipse cx="-0.6" cy="-2" rx="1.4" ry="3" fill="#d3bd7c" opacity="0.4" filter="url(#es)"></ellipse>
      </g><path d="M49 74 q -6 -10 -9 -16" stroke="#c9b079" stroke-width="0.7" fill="none" opacity="0.3" filter="url(#es)"></path><g transform="translate(40 87) rotate(-4)">
        <ellipse cx="0" cy="0" rx="3.6" ry="7" fill="#c9b079" opacity="0.5" filter="url(#e2)"></ellipse>
        <ellipse cx="0.6" cy="1.2" rx="2.4" ry="4.6" fill="#bd9659" opacity="0.34" filter="url(#e3)" style="mix-blend-mode:multiply"></ellipse>
        <ellipse cx="-0.6" cy="-2" rx="1.4" ry="3" fill="#d3bd7c" opacity="0.4" filter="url(#es)"></ellipse>
      </g><path d="M40 81 q 6 -10 9 -16" stroke="#c9b079" stroke-width="0.7" fill="none" opacity="0.3" filter="url(#es)"></path>
    </g></g>
    <g transform="translate(300 165) rotate(18) scale(1.25)" opacity="1"><g transform="translate(-45 -45)">
      <path d="M46 78 C44 56 46 38 50 24" stroke="#62755b" stroke-width="1.8" fill="none" opacity="0.4" filter="url(#es)"></path>
      <g transform="translate(33 40) rotate(-34) scale(1 1)">
        <path d="M0 -26 C-9 -16 -10 8 -2 24 C0 28 2 28 2 24 C10 8 9 -16 0 -26 Z" fill="#62755b" opacity="0.42" filter="url(#e3)"></path>
        <path d="M0 -22 C-6 -12 -7 6 -1 20 C0 22 1 22 1 20 C7 6 6 -12 0 -22 Z" fill="#7c9462" opacity="0.3" filter="url(#es)"></path>
        <ellipse cx="0" cy="-2" rx="0.8" ry="16" fill="#a3b7a6" opacity="0.4" filter="url(#es)"></ellipse>
      </g>
      <g transform="translate(60 44) rotate(30) scale(0.95 0.95)">
        <path d="M0 -26 C-9 -16 -10 8 -2 24 C0 28 2 28 2 24 C10 8 9 -16 0 -26 Z" fill="#62755b" opacity="0.42" filter="url(#e3)"></path>
        <path d="M0 -22 C-6 -12 -7 6 -1 20 C0 22 1 22 1 20 C7 6 6 -12 0 -22 Z" fill="#7c9462" opacity="0.3" filter="url(#es)"></path>
        <ellipse cx="0" cy="-2" rx="0.8" ry="16" fill="#a3b7a6" opacity="0.4" filter="url(#es)"></ellipse>
      </g>
      <g transform="translate(48 24) rotate(-4) scale(0.7 0.8)">
        <path d="M0 -26 C-9 -16 -10 8 -2 24 C0 28 2 28 2 24 C10 8 9 -16 0 -26 Z" fill="#62755b" opacity="0.42" filter="url(#e3)"></path>
        <path d="M0 -22 C-6 -12 -7 6 -1 20 C0 22 1 22 1 20 C7 6 6 -12 0 -22 Z" fill="#7c9462" opacity="0.3" filter="url(#es)"></path>
        <ellipse cx="0" cy="-2" rx="0.8" ry="16" fill="#a3b7a6" opacity="0.4" filter="url(#es)"></ellipse>
      </g>
      <ellipse cx="50" cy="16" rx="4" ry="7" fill="#9fae6f" opacity="0.5" filter="url(#e1)"></ellipse>
    </g></g>
    <g transform="translate(120 415) rotate(-26) scale(1.5)" opacity="1"><g transform="translate(-50 -50)">
      <path d="M50 6 C32 14 18 34 20 58 C22 82 40 94 50 96 C60 94 78 82 80 58 C82 34 68 14 50 6 Z" fill="#62755b" opacity="0.4" filter="url(#ej)"></path>
      <path d="M50 6 C32 14 18 34 20 58 C22 82 40 94 50 96 C60 94 78 82 80 58 C82 34 68 14 50 6 Z" fill="#7c9462" opacity="0.3" filter="url(#e3)" style="mix-blend-mode:multiply"></path>
      <path d="M50 12 C40 26 36 46 38 64 C40 80 46 90 50 92 C54 90 60 80 62 64 C64 46 60 26 50 12 Z" fill="#8a9d78" opacity="0.34" filter="url(#es)"></path>
      <ellipse cx="50" cy="52" rx="2" ry="40" fill="#a3b7a6" opacity="0.4" filter="url(#es)"></ellipse>
      <path d="M50 30 C44 36 40 42 38 50" fill="#cdd7bf" opacity="0" filter="url(#es)"></path>
      <path d="M50 6 C32 14 18 34 20 58 C22 82 40 94 50 96 C60 94 78 82 80 58 C82 34 68 14 50 6 Z" fill="#62755b" opacity="0.1" filter="url(#g2)" style="mix-blend-mode:multiply"></path>
      <g opacity="0.34" style="mix-blend-mode:multiply">
        <ellipse cx="40" cy="44" rx="1.3" ry="7" fill="#62755b" opacity="0.5" filter="url(#es)"></ellipse>
        <ellipse cx="60" cy="44" rx="1.3" ry="7" fill="#62755b" opacity="0.5" filter="url(#es)"></ellipse>
        <ellipse cx="42" cy="62" rx="1.2" ry="6" fill="#62755b" opacity="0.5" filter="url(#es)"></ellipse>
        <ellipse cx="58" cy="62" rx="1.2" ry="6" fill="#62755b" opacity="0.5" filter="url(#es)"></ellipse>
      </g>
    </g></g>
    <g transform="translate(315 400) rotate(6) scale(0.95)" opacity="1"><g transform="translate(-50 -50)">
    <ellipse cx="50" cy="55" rx="33" ry="31" fill="#cf8c87" opacity="0.5" filter="url(#e1)"></ellipse>
    <ellipse cx="54" cy="60" rx="29" ry="26" fill="#c06d6b" opacity="0.34" filter="url(#e2)" style="mix-blend-mode:multiply"></ellipse>
    <ellipse cx="60" cy="66" rx="18" ry="15" fill="#a85a5a" opacity="0.3" filter="url(#e3)" style="mix-blend-mode:multiply"></ellipse>
    <ellipse cx="44" cy="44" rx="17" ry="13" fill="#efece4" opacity="0.42" filter="url(#es)"></ellipse>
    <ellipse cx="45" cy="40" rx="9" ry="7" fill="#f5d8d2" opacity="0.55" filter="url(#es)"></ellipse>
    <path d="M50 24 a30 30 0 1 0 0.1 0" fill="#a85a5a" opacity="0.1" filter="url(#g1)" style="mix-blend-mode:multiply"></path>
    <ellipse cx="40" cy="30" rx="3.4" ry="2.6" fill="#a85a5a" opacity="0.45" filter="url(#e4)"></ellipse>
    <ellipse cx="63" cy="48" rx="2.6" ry="2.2" fill="#a85a5a" opacity="0.4" filter="url(#e4)"></ellipse>
  </g></g>
    <g transform="translate(235 470) rotate(-8) scale(1)" opacity="1"><g transform="translate(-62 -32)">
      <path d="M12 36 C18 24 40 18 66 20 C90 22 106 26 110 32 C112 38 108 44 92 46 C66 49 40 48 24 44 C16 42 10 40 12 36 Z" fill="#8a9d78" opacity="0.46" filter="url(#e2)"></path>
      <path d="M16 38 C24 30 44 27 68 28 C88 29 102 31 106 35 C100 41 78 42 56 41 C38 40 24 41 16 38 Z" fill="#62755b" opacity="0.3" filter="url(#e3)" style="mix-blend-mode:multiply"></path>
      <path d="M20 30 C30 25 48 23 70 24 C86 25 98 27 102 30 C92 33 72 33 54 32 C38 31 26 31 20 30 Z" fill="#a3b7a6" opacity="0.34" filter="url(#es)"></path>
      
      <ellipse cx="110" cy="33" rx="5" ry="4" fill="#9fae6f" opacity="0.42" filter="url(#e4)"></ellipse>
      <ellipse cx="12" cy="37" rx="4" ry="5" fill="#62755b" opacity="0.3" filter="url(#e4)"></ellipse>
      
      <g opacity="0.3" style="mix-blend-mode:multiply">
        <ellipse cx="40" cy="34" rx="1.4" ry="1.4" fill="#62755b" opacity="0.5" filter="url(#e4)"></ellipse><ellipse cx="58" cy="38" rx="1.3" ry="1.3" fill="#62755b" opacity="0.5" filter="url(#e4)"></ellipse>
        <ellipse cx="74" cy="33" rx="1.3" ry="1.3" fill="#62755b" opacity="0.5" filter="url(#e4)"></ellipse><ellipse cx="50" cy="40" rx="1.2" ry="1.2" fill="#62755b" opacity="0.5" filter="url(#e4)"></ellipse>
        <ellipse cx="86" cy="37" rx="1.2" ry="1.2" fill="#62755b" opacity="0.5" filter="url(#e4)"></ellipse>
      </g>
      <path d="M12 36 C18 24 40 18 66 20 C90 22 106 26 110 32 C112 38 108 44 92 46 C66 49 40 48 24 44 C16 42 10 40 12 36 Z" fill="#62755b" opacity="0.08" filter="url(#g2)" style="mix-blend-mode:multiply"></path>
    </g></g>
    
    <g transform="translate(1395 370) rotate(0) scale(1.9)" opacity="1"><g transform="translate(-60 -48)">
    
    <path d="M22 44 C24 70 40 84 60 84 C80 84 96 70 98 44 C90 50 74 54 60 54 C46 54 30 50 22 44 Z" fill="#9b7a52" opacity="0.5" filter="url(#e1)"></path>
    <path d="M30 56 C36 74 48 80 60 80 C72 80 84 74 90 56 C80 62 70 64 60 64 C50 64 40 62 30 56 Z" fill="#b48b60" opacity="0.34" filter="url(#e2)" style="mix-blend-mode:multiply"></path>
    
    <ellipse cx="60" cy="86" rx="11" ry="4" fill="#9b7a52" opacity="0.45" filter="url(#es)"></ellipse>
    
    <ellipse cx="60" cy="44" rx="38" ry="11" fill="#b6864e" opacity="0.55" filter="url(#e3)"></ellipse>
    <ellipse cx="60" cy="44" rx="30" ry="8" fill="#c79a5e" opacity="0.5" filter="url(#es)"></ellipse>
    <ellipse cx="54" cy="41" rx="12" ry="3.5" fill="#e0c386" opacity="0.5" filter="url(#es)"></ellipse>
    
    <path d="M48 30 C44 22 52 18 48 8" stroke="#7a746a" stroke-width="1.6" fill="none" opacity="0.16" filter="url(#es)"></path>
    <path d="M66 30 C70 22 62 16 68 6" stroke="#7a746a" stroke-width="1.6" fill="none" opacity="0.14" filter="url(#es)"></path>
  </g></g>
    <g transform="translate(1505 225) rotate(12) scale(1.4)" opacity="1"><g transform="translate(-35 -50)">
      <path d="M35 4 C20 16 15 44 21 72 C25 90 33 96 35 96 C37 96 45 90 49 72 C55 44 50 16 35 4 Z" fill="#c7cda3" opacity="0.5" filter="url(#e2)"></path>
      <path d="M35 4 C20 16 15 44 21 72 C25 90 33 96 35 96 C37 96 45 90 49 72 C55 44 50 16 35 4 Z" fill="#9fae6f" opacity="0.26" filter="url(#e3)" style="mix-blend-mode:multiply"></path>
      <path d="M35 12 C26 22 22 46 26 70 C29 86 34 92 35 92 C36 92 41 86 44 70 C48 46 44 22 35 12 Z" fill="#d9dcb8" opacity="0.4" filter="url(#es)"></path>
      
      <ellipse cx="35" cy="12" rx="9" ry="12" fill="#c06d6b" opacity="0.3" filter="url(#e1)"></ellipse>
      <ellipse cx="35" cy="9" rx="6" ry="8" fill="#a85a5a" opacity="0.28" filter="url(#es)" style="mix-blend-mode:multiply"></ellipse>
      
      <ellipse cx="35" cy="90" rx="12" ry="8" fill="#a89cbd" opacity="0.26" filter="url(#e2)"></ellipse>
      <ellipse cx="35" cy="93" rx="8" ry="5" fill="#a85a5a" opacity="0.22" filter="url(#es)" style="mix-blend-mode:multiply"></ellipse>
      
      <path d="M22 40 C30 52 40 52 48 40" stroke="#7c9462" stroke-width="1" fill="none" opacity="0.28" filter="url(#es)"></path>
      <path d="M24 60 C31 70 39 70 46 60" stroke="#7c9462" stroke-width="1" fill="none" opacity="0.24" filter="url(#es)"></path>
      <path d="M35 4 C20 16 15 44 21 72 C25 90 33 96 35 96 C37 96 45 90 49 72 C55 44 50 16 35 4 Z" fill="#62755b" opacity="0.08" filter="url(#g1)" style="mix-blend-mode:multiply"></path>
    </g></g>
    <g transform="translate(1300 170) rotate(-14) scale(1.25)" opacity="1"><g transform="translate(-62 -32)">
      <path d="M12 36 C18 24 40 18 66 20 C90 22 106 26 110 32 C112 38 108 44 92 46 C66 49 40 48 24 44 C16 42 10 40 12 36 Z" fill="#8a9d78" opacity="0.46" filter="url(#e2)"></path>
      <path d="M16 38 C24 30 44 27 68 28 C88 29 102 31 106 35 C100 41 78 42 56 41 C38 40 24 41 16 38 Z" fill="#62755b" opacity="0.3" filter="url(#e3)" style="mix-blend-mode:multiply"></path>
      <path d="M20 30 C30 25 48 23 70 24 C86 25 98 27 102 30 C92 33 72 33 54 32 C38 31 26 31 20 30 Z" fill="#a3b7a6" opacity="0.34" filter="url(#es)"></path>
      
      <ellipse cx="110" cy="33" rx="5" ry="4" fill="#9fae6f" opacity="0.42" filter="url(#e4)"></ellipse>
      <ellipse cx="12" cy="37" rx="4" ry="5" fill="#62755b" opacity="0.3" filter="url(#e4)"></ellipse>
      
      <g opacity="0.3" style="mix-blend-mode:multiply">
        <ellipse cx="40" cy="34" rx="1.4" ry="1.4" fill="#62755b" opacity="0.5" filter="url(#e4)"></ellipse><ellipse cx="58" cy="38" rx="1.3" ry="1.3" fill="#62755b" opacity="0.5" filter="url(#e4)"></ellipse>
        <ellipse cx="74" cy="33" rx="1.3" ry="1.3" fill="#62755b" opacity="0.5" filter="url(#e4)"></ellipse><ellipse cx="50" cy="40" rx="1.2" ry="1.2" fill="#62755b" opacity="0.5" filter="url(#e4)"></ellipse>
        <ellipse cx="86" cy="37" rx="1.2" ry="1.2" fill="#62755b" opacity="0.5" filter="url(#e4)"></ellipse>
      </g>
      <path d="M12 36 C18 24 40 18 66 20 C90 22 106 26 110 32 C112 38 108 44 92 46 C66 49 40 48 24 44 C16 42 10 40 12 36 Z" fill="#62755b" opacity="0.08" filter="url(#g2)" style="mix-blend-mode:multiply"></path>
    </g></g>
    <g transform="translate(1485 410) rotate(32) scale(1.2)" opacity="1"><g transform="translate(-50 -50)">
      <path d="M50 6 C32 14 18 34 20 58 C22 82 40 94 50 96 C60 94 78 82 80 58 C82 34 68 14 50 6 Z" fill="#62755b" opacity="0.4" filter="url(#ej)"></path>
      <path d="M50 6 C32 14 18 34 20 58 C22 82 40 94 50 96 C60 94 78 82 80 58 C82 34 68 14 50 6 Z" fill="#7c9462" opacity="0.3" filter="url(#e3)" style="mix-blend-mode:multiply"></path>
      <path d="M50 12 C40 26 36 46 38 64 C40 80 46 90 50 92 C54 90 60 80 62 64 C64 46 60 26 50 12 Z" fill="#8a9d78" opacity="0.34" filter="url(#es)"></path>
      <ellipse cx="50" cy="52" rx="2" ry="40" fill="#a3b7a6" opacity="0.4" filter="url(#es)"></ellipse>
      <path d="M50 30 C44 36 40 42 38 50" fill="#cdd7bf" opacity="0" filter="url(#es)"></path>
      <path d="M50 6 C32 14 18 34 20 58 C22 82 40 94 50 96 C60 94 78 82 80 58 C82 34 68 14 50 6 Z" fill="#62755b" opacity="0.1" filter="url(#g2)" style="mix-blend-mode:multiply"></path>
      <g opacity="0.34" style="mix-blend-mode:multiply">
        <ellipse cx="40" cy="44" rx="1.3" ry="7" fill="#62755b" opacity="0.5" filter="url(#es)"></ellipse>
        <ellipse cx="60" cy="44" rx="1.3" ry="7" fill="#62755b" opacity="0.5" filter="url(#es)"></ellipse>
        <ellipse cx="42" cy="62" rx="1.2" ry="6" fill="#62755b" opacity="0.5" filter="url(#es)"></ellipse>
        <ellipse cx="58" cy="62" rx="1.2" ry="6" fill="#62755b" opacity="0.5" filter="url(#es)"></ellipse>
      </g>
    </g></g>
    <g transform="translate(1245 330) rotate(16) scale(1.35)" opacity="1"><g transform="translate(-50 -55)">
      <path d="M50 12 C52 40 50 70 44 96" stroke="#bd9659" stroke-width="2.4" fill="none" opacity="0.4" filter="url(#es)"></path>
      <g transform="translate(50 18) rotate(-28)">
        <ellipse cx="0" cy="0" rx="3.6" ry="7" fill="#c9b079" opacity="0.5" filter="url(#e1)"></ellipse>
        <ellipse cx="0.6" cy="1.2" rx="2.4" ry="4.6" fill="#bd9659" opacity="0.34" filter="url(#e3)" style="mix-blend-mode:multiply"></ellipse>
        <ellipse cx="-0.6" cy="-2" rx="1.4" ry="3" fill="#d3bd7c" opacity="0.4" filter="url(#es)"></ellipse>
      </g><path d="M50 12 q -6 -10 -9 -16" stroke="#c9b079" stroke-width="0.7" fill="none" opacity="0.3" filter="url(#es)"></path><g transform="translate(44 24) rotate(-4)">
        <ellipse cx="0" cy="0" rx="3.6" ry="7" fill="#c9b079" opacity="0.5" filter="url(#e2)"></ellipse>
        <ellipse cx="0.6" cy="1.2" rx="2.4" ry="4.6" fill="#bd9659" opacity="0.34" filter="url(#e3)" style="mix-blend-mode:multiply"></ellipse>
        <ellipse cx="-0.6" cy="-2" rx="1.4" ry="3" fill="#d3bd7c" opacity="0.4" filter="url(#es)"></ellipse>
      </g><path d="M44 18 q 6 -10 9 -16" stroke="#c9b079" stroke-width="0.7" fill="none" opacity="0.3" filter="url(#es)"></path><g transform="translate(56 26) rotate(-28)">
        <ellipse cx="0" cy="0" rx="3.6" ry="7" fill="#c9b079" opacity="0.5" filter="url(#e1)"></ellipse>
        <ellipse cx="0.6" cy="1.2" rx="2.4" ry="4.6" fill="#bd9659" opacity="0.34" filter="url(#e3)" style="mix-blend-mode:multiply"></ellipse>
        <ellipse cx="-0.6" cy="-2" rx="1.4" ry="3" fill="#d3bd7c" opacity="0.4" filter="url(#es)"></ellipse>
      </g><path d="M56 20 q -6 -10 -9 -16" stroke="#c9b079" stroke-width="0.7" fill="none" opacity="0.3" filter="url(#es)"></path><g transform="translate(42 33) rotate(-4)">
        <ellipse cx="0" cy="0" rx="3.6" ry="7" fill="#c9b079" opacity="0.5" filter="url(#e2)"></ellipse>
        <ellipse cx="0.6" cy="1.2" rx="2.4" ry="4.6" fill="#bd9659" opacity="0.34" filter="url(#e3)" style="mix-blend-mode:multiply"></ellipse>
        <ellipse cx="-0.6" cy="-2" rx="1.4" ry="3" fill="#d3bd7c" opacity="0.4" filter="url(#es)"></ellipse>
      </g><path d="M42 27 q 6 -10 9 -16" stroke="#c9b079" stroke-width="0.7" fill="none" opacity="0.3" filter="url(#es)"></path><g transform="translate(57 36) rotate(-28)">
        <ellipse cx="0" cy="0" rx="3.6" ry="7" fill="#c9b079" opacity="0.5" filter="url(#e1)"></ellipse>
        <ellipse cx="0.6" cy="1.2" rx="2.4" ry="4.6" fill="#bd9659" opacity="0.34" filter="url(#e3)" style="mix-blend-mode:multiply"></ellipse>
        <ellipse cx="-0.6" cy="-2" rx="1.4" ry="3" fill="#d3bd7c" opacity="0.4" filter="url(#es)"></ellipse>
      </g><path d="M57 30 q -6 -10 -9 -16" stroke="#c9b079" stroke-width="0.7" fill="none" opacity="0.3" filter="url(#es)"></path><g transform="translate(40 43) rotate(-4)">
        <ellipse cx="0" cy="0" rx="3.6" ry="7" fill="#c9b079" opacity="0.5" filter="url(#e2)"></ellipse>
        <ellipse cx="0.6" cy="1.2" rx="2.4" ry="4.6" fill="#bd9659" opacity="0.34" filter="url(#e3)" style="mix-blend-mode:multiply"></ellipse>
        <ellipse cx="-0.6" cy="-2" rx="1.4" ry="3" fill="#d3bd7c" opacity="0.4" filter="url(#es)"></ellipse>
      </g><path d="M40 37 q 6 -10 9 -16" stroke="#c9b079" stroke-width="0.7" fill="none" opacity="0.3" filter="url(#es)"></path><g transform="translate(56 47) rotate(-28)">
        <ellipse cx="0" cy="0" rx="3.6" ry="7" fill="#c9b079" opacity="0.5" filter="url(#e1)"></ellipse>
        <ellipse cx="0.6" cy="1.2" rx="2.4" ry="4.6" fill="#bd9659" opacity="0.34" filter="url(#e3)" style="mix-blend-mode:multiply"></ellipse>
        <ellipse cx="-0.6" cy="-2" rx="1.4" ry="3" fill="#d3bd7c" opacity="0.4" filter="url(#es)"></ellipse>
      </g><path d="M56 41 q -6 -10 -9 -16" stroke="#c9b079" stroke-width="0.7" fill="none" opacity="0.3" filter="url(#es)"></path><g transform="translate(39 54) rotate(-4)">
        <ellipse cx="0" cy="0" rx="3.6" ry="7" fill="#c9b079" opacity="0.5" filter="url(#e2)"></ellipse>
        <ellipse cx="0.6" cy="1.2" rx="2.4" ry="4.6" fill="#bd9659" opacity="0.34" filter="url(#e3)" style="mix-blend-mode:multiply"></ellipse>
        <ellipse cx="-0.6" cy="-2" rx="1.4" ry="3" fill="#d3bd7c" opacity="0.4" filter="url(#es)"></ellipse>
      </g><path d="M39 48 q 6 -10 9 -16" stroke="#c9b079" stroke-width="0.7" fill="none" opacity="0.3" filter="url(#es)"></path><g transform="translate(54 58) rotate(-28)">
        <ellipse cx="0" cy="0" rx="3.6" ry="7" fill="#c9b079" opacity="0.5" filter="url(#e1)"></ellipse>
        <ellipse cx="0.6" cy="1.2" rx="2.4" ry="4.6" fill="#bd9659" opacity="0.34" filter="url(#e3)" style="mix-blend-mode:multiply"></ellipse>
        <ellipse cx="-0.6" cy="-2" rx="1.4" ry="3" fill="#d3bd7c" opacity="0.4" filter="url(#es)"></ellipse>
      </g><path d="M54 52 q -6 -10 -9 -16" stroke="#c9b079" stroke-width="0.7" fill="none" opacity="0.3" filter="url(#es)"></path><g transform="translate(38 65) rotate(-4)">
        <ellipse cx="0" cy="0" rx="3.6" ry="7" fill="#c9b079" opacity="0.5" filter="url(#e2)"></ellipse>
        <ellipse cx="0.6" cy="1.2" rx="2.4" ry="4.6" fill="#bd9659" opacity="0.34" filter="url(#e3)" style="mix-blend-mode:multiply"></ellipse>
        <ellipse cx="-0.6" cy="-2" rx="1.4" ry="3" fill="#d3bd7c" opacity="0.4" filter="url(#es)"></ellipse>
      </g><path d="M38 59 q 6 -10 9 -16" stroke="#c9b079" stroke-width="0.7" fill="none" opacity="0.3" filter="url(#es)"></path><g transform="translate(52 69) rotate(-28)">
        <ellipse cx="0" cy="0" rx="3.6" ry="7" fill="#c9b079" opacity="0.5" filter="url(#e1)"></ellipse>
        <ellipse cx="0.6" cy="1.2" rx="2.4" ry="4.6" fill="#bd9659" opacity="0.34" filter="url(#e3)" style="mix-blend-mode:multiply"></ellipse>
        <ellipse cx="-0.6" cy="-2" rx="1.4" ry="3" fill="#d3bd7c" opacity="0.4" filter="url(#es)"></ellipse>
      </g><path d="M52 63 q -6 -10 -9 -16" stroke="#c9b079" stroke-width="0.7" fill="none" opacity="0.3" filter="url(#es)"></path><g transform="translate(37 76) rotate(-4)">
        <ellipse cx="0" cy="0" rx="3.6" ry="7" fill="#c9b079" opacity="0.5" filter="url(#e2)"></ellipse>
        <ellipse cx="0.6" cy="1.2" rx="2.4" ry="4.6" fill="#bd9659" opacity="0.34" filter="url(#e3)" style="mix-blend-mode:multiply"></ellipse>
        <ellipse cx="-0.6" cy="-2" rx="1.4" ry="3" fill="#d3bd7c" opacity="0.4" filter="url(#es)"></ellipse>
      </g><path d="M37 70 q 6 -10 9 -16" stroke="#c9b079" stroke-width="0.7" fill="none" opacity="0.3" filter="url(#es)"></path><g transform="translate(49 80) rotate(-28)">
        <ellipse cx="0" cy="0" rx="3.6" ry="7" fill="#c9b079" opacity="0.5" filter="url(#e1)"></ellipse>
        <ellipse cx="0.6" cy="1.2" rx="2.4" ry="4.6" fill="#bd9659" opacity="0.34" filter="url(#e3)" style="mix-blend-mode:multiply"></ellipse>
        <ellipse cx="-0.6" cy="-2" rx="1.4" ry="3" fill="#d3bd7c" opacity="0.4" filter="url(#es)"></ellipse>
      </g><path d="M49 74 q -6 -10 -9 -16" stroke="#c9b079" stroke-width="0.7" fill="none" opacity="0.3" filter="url(#es)"></path><g transform="translate(40 87) rotate(-4)">
        <ellipse cx="0" cy="0" rx="3.6" ry="7" fill="#c9b079" opacity="0.5" filter="url(#e2)"></ellipse>
        <ellipse cx="0.6" cy="1.2" rx="2.4" ry="4.6" fill="#bd9659" opacity="0.34" filter="url(#e3)" style="mix-blend-mode:multiply"></ellipse>
        <ellipse cx="-0.6" cy="-2" rx="1.4" ry="3" fill="#d3bd7c" opacity="0.4" filter="url(#es)"></ellipse>
      </g><path d="M40 81 q 6 -10 9 -16" stroke="#c9b079" stroke-width="0.7" fill="none" opacity="0.3" filter="url(#es)"></path>
    </g></g>
    <g transform="translate(1470 150) rotate(0) scale(0.8)" opacity="1"><g transform="translate(-50 -50)">
    <ellipse cx="50" cy="55" rx="33" ry="31" fill="#cf8c87" opacity="0.5" filter="url(#e1)"></ellipse>
    <ellipse cx="54" cy="60" rx="29" ry="26" fill="#c06d6b" opacity="0.34" filter="url(#e2)" style="mix-blend-mode:multiply"></ellipse>
    <ellipse cx="60" cy="66" rx="18" ry="15" fill="#a85a5a" opacity="0.3" filter="url(#e3)" style="mix-blend-mode:multiply"></ellipse>
    <ellipse cx="44" cy="44" rx="17" ry="13" fill="#efece4" opacity="0.42" filter="url(#es)"></ellipse>
    <ellipse cx="45" cy="40" rx="9" ry="7" fill="#f5d8d2" opacity="0.55" filter="url(#es)"></ellipse>
    <path d="M50 24 a30 30 0 1 0 0.1 0" fill="#a85a5a" opacity="0.1" filter="url(#g1)" style="mix-blend-mode:multiply"></path>
    <ellipse cx="40" cy="30" rx="3.4" ry="2.6" fill="#a85a5a" opacity="0.45" filter="url(#e4)"></ellipse>
    <ellipse cx="63" cy="48" rx="2.6" ry="2.2" fill="#a85a5a" opacity="0.4" filter="url(#e4)"></ellipse>
  </g></g>
    
    <g transform="translate(430 300) rotate(10) scale(0.9)" opacity="0.9"><g transform="translate(-45 -35)">
      <g transform="translate(28 26) rotate(-18)">
      <ellipse cx="0.8" cy="1" rx="5.2" ry="2.6" fill="#c9b079" opacity="0.22" filter="url(#e2)"></ellipse>
      <ellipse cx="0" cy="0" rx="5" ry="2.4" fill="#f1ead9" opacity="0.85" filter="url(#e1)"></ellipse>
      <ellipse cx="-1" cy="-0.6" rx="2.6" ry="1.2" fill="#ffffff" opacity="0.5" filter="url(#es)"></ellipse>
    </g><g transform="translate(52 22) rotate(22)">
      <ellipse cx="0.8" cy="1" rx="5.2" ry="2.6" fill="#c9b079" opacity="0.22" filter="url(#e2)"></ellipse>
      <ellipse cx="0" cy="0" rx="5" ry="2.4" fill="#f1ead9" opacity="0.85" filter="url(#e1)"></ellipse>
      <ellipse cx="-1" cy="-0.6" rx="2.6" ry="1.2" fill="#ffffff" opacity="0.5" filter="url(#es)"></ellipse>
    </g><g transform="translate(66 38) rotate(-8)">
      <ellipse cx="0.8" cy="1" rx="5.2" ry="2.6" fill="#c9b079" opacity="0.22" filter="url(#e2)"></ellipse>
      <ellipse cx="0" cy="0" rx="5" ry="2.4" fill="#f1ead9" opacity="0.85" filter="url(#e1)"></ellipse>
      <ellipse cx="-1" cy="-0.6" rx="2.6" ry="1.2" fill="#ffffff" opacity="0.5" filter="url(#es)"></ellipse>
    </g>
      <g transform="translate(38 44) rotate(40)">
      <ellipse cx="0.8" cy="1" rx="5.2" ry="2.6" fill="#c9b079" opacity="0.22" filter="url(#e2)"></ellipse>
      <ellipse cx="0" cy="0" rx="5" ry="2.4" fill="#f1ead9" opacity="0.85" filter="url(#e1)"></ellipse>
      <ellipse cx="-1" cy="-0.6" rx="2.6" ry="1.2" fill="#ffffff" opacity="0.5" filter="url(#es)"></ellipse>
    </g><g transform="translate(58 54) rotate(-30)">
      <ellipse cx="0.8" cy="1" rx="5.2" ry="2.6" fill="#c9b079" opacity="0.22" filter="url(#e2)"></ellipse>
      <ellipse cx="0" cy="0" rx="5" ry="2.4" fill="#f1ead9" opacity="0.85" filter="url(#e1)"></ellipse>
      <ellipse cx="-1" cy="-0.6" rx="2.6" ry="1.2" fill="#ffffff" opacity="0.5" filter="url(#es)"></ellipse>
    </g><g transform="translate(24 52) rotate(8)">
      <ellipse cx="0.8" cy="1" rx="5.2" ry="2.6" fill="#c9b079" opacity="0.22" filter="url(#e2)"></ellipse>
      <ellipse cx="0" cy="0" rx="5" ry="2.4" fill="#f1ead9" opacity="0.85" filter="url(#e1)"></ellipse>
      <ellipse cx="-1" cy="-0.6" rx="2.6" ry="1.2" fill="#ffffff" opacity="0.5" filter="url(#es)"></ellipse>
    </g>
    </g></g>
    <g transform="translate(200 110) rotate(0) scale(0.7)" opacity="0.5"><g transform="translate(-35 -50)">
      <g transform="translate(24 30) scale(1.1)">
      <path d="M0 -16 C-8 -4 -9 8 0 16 C9 8 8 -4 0 -16 Z" fill="#9ec2bd" opacity="0.42" filter="url(#e1)"></path>
      <path d="M0 -10 C-4 -2 -5 6 0 12 C5 6 4 -2 0 -10 Z" fill="#8db5ad" opacity="0.26" filter="url(#es)" style="mix-blend-mode:multiply"></path>
      <ellipse cx="-2.4" cy="-2" rx="2" ry="4" fill="#ffffff" opacity="0.5" filter="url(#es)"></ellipse>
    </g>
      <g transform="translate(46 52) scale(1.35)">
      <path d="M0 -16 C-8 -4 -9 8 0 16 C9 8 8 -4 0 -16 Z" fill="#9ec2bd" opacity="0.46" filter="url(#e1)"></path>
      <path d="M0 -10 C-4 -2 -5 6 0 12 C5 6 4 -2 0 -10 Z" fill="#8db5ad" opacity="0.26" filter="url(#es)" style="mix-blend-mode:multiply"></path>
      <ellipse cx="-2.4" cy="-2" rx="2" ry="4" fill="#ffffff" opacity="0.5" filter="url(#es)"></ellipse>
    </g>
      <g transform="translate(30 74) scale(0.85)">
      <path d="M0 -16 C-8 -4 -9 8 0 16 C9 8 8 -4 0 -16 Z" fill="#9ec2bd" opacity="0.4" filter="url(#e1)"></path>
      <path d="M0 -10 C-4 -2 -5 6 0 12 C5 6 4 -2 0 -10 Z" fill="#8db5ad" opacity="0.26" filter="url(#es)" style="mix-blend-mode:multiply"></path>
      <ellipse cx="-2.4" cy="-2" rx="2" ry="4" fill="#ffffff" opacity="0.5" filter="url(#es)"></ellipse>
    </g>
    </g></g><g transform="translate(470 70) rotate(0) scale(0.5)" opacity="0.45"><g transform="translate(-35 -50)">
      <g transform="translate(24 30) scale(1.1)">
      <path d="M0 -16 C-8 -4 -9 8 0 16 C9 8 8 -4 0 -16 Z" fill="#9ec2bd" opacity="0.42" filter="url(#e1)"></path>
      <path d="M0 -10 C-4 -2 -5 6 0 12 C5 6 4 -2 0 -10 Z" fill="#8db5ad" opacity="0.26" filter="url(#es)" style="mix-blend-mode:multiply"></path>
      <ellipse cx="-2.4" cy="-2" rx="2" ry="4" fill="#ffffff" opacity="0.5" filter="url(#es)"></ellipse>
    </g>
      <g transform="translate(46 52) scale(1.35)">
      <path d="M0 -16 C-8 -4 -9 8 0 16 C9 8 8 -4 0 -16 Z" fill="#9ec2bd" opacity="0.46" filter="url(#e1)"></path>
      <path d="M0 -10 C-4 -2 -5 6 0 12 C5 6 4 -2 0 -10 Z" fill="#8db5ad" opacity="0.26" filter="url(#es)" style="mix-blend-mode:multiply"></path>
      <ellipse cx="-2.4" cy="-2" rx="2" ry="4" fill="#ffffff" opacity="0.5" filter="url(#es)"></ellipse>
    </g>
      <g transform="translate(30 74) scale(0.85)">
      <path d="M0 -16 C-8 -4 -9 8 0 16 C9 8 8 -4 0 -16 Z" fill="#9ec2bd" opacity="0.4" filter="url(#e1)"></path>
      <path d="M0 -10 C-4 -2 -5 6 0 12 C5 6 4 -2 0 -10 Z" fill="#8db5ad" opacity="0.26" filter="url(#es)" style="mix-blend-mode:multiply"></path>
      <ellipse cx="-2.4" cy="-2" rx="2" ry="4" fill="#ffffff" opacity="0.5" filter="url(#es)"></ellipse>
    </g>
    </g></g><g transform="translate(1180 90) rotate(0) scale(0.6)" opacity="0.5"><g transform="translate(-35 -50)">
      <g transform="translate(24 30) scale(1.1)">
      <path d="M0 -16 C-8 -4 -9 8 0 16 C9 8 8 -4 0 -16 Z" fill="#9ec2bd" opacity="0.42" filter="url(#e1)"></path>
      <path d="M0 -10 C-4 -2 -5 6 0 12 C5 6 4 -2 0 -10 Z" fill="#8db5ad" opacity="0.26" filter="url(#es)" style="mix-blend-mode:multiply"></path>
      <ellipse cx="-2.4" cy="-2" rx="2" ry="4" fill="#ffffff" opacity="0.5" filter="url(#es)"></ellipse>
    </g>
      <g transform="translate(46 52) scale(1.35)">
      <path d="M0 -16 C-8 -4 -9 8 0 16 C9 8 8 -4 0 -16 Z" fill="#9ec2bd" opacity="0.46" filter="url(#e1)"></path>
      <path d="M0 -10 C-4 -2 -5 6 0 12 C5 6 4 -2 0 -10 Z" fill="#8db5ad" opacity="0.26" filter="url(#es)" style="mix-blend-mode:multiply"></path>
      <ellipse cx="-2.4" cy="-2" rx="2" ry="4" fill="#ffffff" opacity="0.5" filter="url(#es)"></ellipse>
    </g>
      <g transform="translate(30 74) scale(0.85)">
      <path d="M0 -16 C-8 -4 -9 8 0 16 C9 8 8 -4 0 -16 Z" fill="#9ec2bd" opacity="0.4" filter="url(#e1)"></path>
      <path d="M0 -10 C-4 -2 -5 6 0 12 C5 6 4 -2 0 -10 Z" fill="#8db5ad" opacity="0.26" filter="url(#es)" style="mix-blend-mode:multiply"></path>
      <ellipse cx="-2.4" cy="-2" rx="2" ry="4" fill="#ffffff" opacity="0.5" filter="url(#es)"></ellipse>
    </g>
    </g></g><g transform="translate(1320 60) rotate(0) scale(0.45)" opacity="0.4"><g transform="translate(-35 -50)">
      <g transform="translate(24 30) scale(1.1)">
      <path d="M0 -16 C-8 -4 -9 8 0 16 C9 8 8 -4 0 -16 Z" fill="#9ec2bd" opacity="0.42" filter="url(#e1)"></path>
      <path d="M0 -10 C-4 -2 -5 6 0 12 C5 6 4 -2 0 -10 Z" fill="#8db5ad" opacity="0.26" filter="url(#es)" style="mix-blend-mode:multiply"></path>
      <ellipse cx="-2.4" cy="-2" rx="2" ry="4" fill="#ffffff" opacity="0.5" filter="url(#es)"></ellipse>
    </g>
      <g transform="translate(46 52) scale(1.35)">
      <path d="M0 -16 C-8 -4 -9 8 0 16 C9 8 8 -4 0 -16 Z" fill="#9ec2bd" opacity="0.46" filter="url(#e1)"></path>
      <path d="M0 -10 C-4 -2 -5 6 0 12 C5 6 4 -2 0 -10 Z" fill="#8db5ad" opacity="0.26" filter="url(#es)" style="mix-blend-mode:multiply"></path>
      <ellipse cx="-2.4" cy="-2" rx="2" ry="4" fill="#ffffff" opacity="0.5" filter="url(#es)"></ellipse>
    </g>
      <g transform="translate(30 74) scale(0.85)">
      <path d="M0 -16 C-8 -4 -9 8 0 16 C9 8 8 -4 0 -16 Z" fill="#9ec2bd" opacity="0.4" filter="url(#e1)"></path>
      <path d="M0 -10 C-4 -2 -5 6 0 12 C5 6 4 -2 0 -10 Z" fill="#8db5ad" opacity="0.26" filter="url(#es)" style="mix-blend-mode:multiply"></path>
      <ellipse cx="-2.4" cy="-2" rx="2" ry="4" fill="#ffffff" opacity="0.5" filter="url(#es)"></ellipse>
    </g>
    </g></g>
  </g>
    </svg>